<svg width="706" height="177" viewBox="0 0 706 177" fill="none" xmlns="http://www.w3.org/2000/svg">
<rect x="2.5" y="2.5" width="701" height="172" rx="27.5" fill="#F67266" stroke="#A02418" stroke-width="5"/>
<path d="M297.564 44C296.234 44 295.103 43.8017 294.169 43.405C293.259 42.985 292.571 42.3317 292.104 41.445C291.661 40.535 291.439 39.345 291.439 37.875V18.1H296.619V37.035C296.619 37.595 296.713 38.05 296.899 38.4C297.109 38.75 297.389 38.995 297.739 39.135C298.089 39.2517 298.486 39.31 298.929 39.31H307.119V44H297.564ZM313.915 44.21C312.491 44.21 311.336 43.79 310.45 42.95C309.563 42.11 309.12 40.9433 309.12 39.45V37.77C309.12 36.3467 309.621 35.18 310.625 34.27C311.628 33.3367 313.191 32.87 315.315 32.87H320.11V31.575C320.11 30.9917 320.005 30.5133 319.795 30.14C319.585 29.7433 319.188 29.4633 318.605 29.3C318.045 29.1133 317.181 29.02 316.015 29.02H310.38V26.01C311.29 25.73 312.34 25.485 313.53 25.275C314.743 25.065 316.201 24.96 317.905 24.96C319.468 24.96 320.798 25.1467 321.895 25.52C323.015 25.8933 323.855 26.535 324.415 27.445C324.998 28.355 325.29 29.615 325.29 31.225V44H321.195L320.355 42.005C320.191 42.1917 319.911 42.4017 319.515 42.635C319.118 42.8683 318.628 43.1133 318.045 43.37C317.485 43.6033 316.843 43.8017 316.12 43.965C315.42 44.1283 314.685 44.21 313.915 44.21ZM316.54 40.605C316.773 40.605 317.03 40.5817 317.31 40.535C317.613 40.465 317.916 40.395 318.22 40.325C318.546 40.2317 318.838 40.15 319.095 40.08C319.375 39.9867 319.596 39.905 319.76 39.835C319.946 39.765 320.063 39.7183 320.11 39.695V35.32L316.96 35.53C316.05 35.6 315.373 35.8333 314.93 36.23C314.51 36.6267 314.3 37.1633 314.3 37.84V38.61C314.3 39.0767 314.393 39.4617 314.58 39.765C314.79 40.0683 315.058 40.29 315.385 40.43C315.735 40.5467 316.12 40.605 316.54 40.605ZM334.488 44.21C332.808 44.21 331.49 43.72 330.533 42.74C329.576 41.7367 329.098 40.325 329.098 38.505V25.205H334.278V36.965C334.278 38.015 334.523 38.7267 335.013 39.1C335.526 39.45 336.191 39.625 337.008 39.625C337.661 39.625 338.326 39.5083 339.003 39.275C339.703 39.0183 340.321 38.68 340.858 38.26V25.205H346.073V44H341.768L340.858 42.075C340.018 42.635 339.05 43.1367 337.953 43.58C336.856 44 335.701 44.21 334.488 44.21ZM349.983 44V25.205H354.253L355.163 27.13C355.863 26.5467 356.738 26.0333 357.788 25.59C358.862 25.1233 359.958 24.89 361.078 24.89C362.618 24.89 363.808 25.1933 364.648 25.8C365.488 26.4067 366.072 27.2233 366.398 28.25C366.748 29.2533 366.923 30.3733 366.923 31.61V44H361.743V32.275C361.743 31.6683 361.627 31.1667 361.393 30.77C361.183 30.3733 360.88 30.07 360.483 29.86C360.087 29.65 359.608 29.545 359.048 29.545C358.558 29.545 358.08 29.6033 357.613 29.72C357.17 29.8367 356.738 30 356.318 30.21C355.922 30.42 355.537 30.665 355.163 30.945V44H349.983ZM378.114 44.21C376.97 44.21 375.909 44.0583 374.929 43.755C373.972 43.4517 373.144 42.95 372.444 42.25C371.744 41.5267 371.195 40.5583 370.799 39.345C370.425 38.1083 370.239 36.5567 370.239 34.69C370.239 32.7767 370.414 31.19 370.764 29.93C371.114 28.67 371.627 27.6783 372.304 26.955C373.004 26.2083 373.855 25.6833 374.859 25.38C375.862 25.0767 376.994 24.925 378.254 24.925C379.397 24.925 380.482 24.995 381.509 25.135C382.559 25.2517 383.655 25.4733 384.799 25.8V28.775H379.864C378.79 28.775 377.927 28.9383 377.274 29.265C376.62 29.5683 376.142 30.1517 375.839 31.015C375.559 31.855 375.419 33.0683 375.419 34.655C375.419 36.2183 375.559 37.4083 375.839 38.225C376.142 39.0417 376.62 39.59 377.274 39.87C377.95 40.15 378.837 40.29 379.934 40.29H385.079V43.23C384.495 43.4167 383.819 43.5917 383.049 43.755C382.279 43.895 381.462 44 380.599 44.07C379.759 44.1633 378.93 44.21 378.114 44.21ZM387.957 44V17.33H393.137V27.13C393.814 26.57 394.689 26.0567 395.762 25.59C396.859 25.1233 397.979 24.89 399.122 24.89C400.545 24.89 401.677 25.17 402.517 25.73C403.357 26.29 403.964 27.0717 404.337 28.075C404.71 29.0783 404.897 30.245 404.897 31.575V44H399.717V32.24C399.717 31.6333 399.6 31.1317 399.367 30.735C399.134 30.3383 398.819 30.0467 398.422 29.86C398.025 29.65 397.559 29.545 397.022 29.545C396.532 29.545 396.054 29.615 395.587 29.755C395.144 29.8717 394.712 30.035 394.292 30.245C393.895 30.455 393.51 30.6883 393.137 30.945V44H387.957ZM204.349 121.85V83.15H210.549L211.749 85.7C212.382 85.2 213.082 84.7333 213.849 84.3C214.616 83.8333 215.449 83.4667 216.349 83.2C217.249 82.9 218.199 82.75 219.199 82.75C220.832 82.75 222.249 83.0667 223.449 83.7C224.682 84.3333 225.682 85.25 226.449 86.45C227.216 87.65 227.782 89.1167 228.149 90.85C228.516 92.55 228.699 94.4667 228.699 96.6C228.699 99.4667 228.416 101.933 227.849 104C227.282 106.067 226.299 107.65 224.899 108.75C223.532 109.817 221.632 110.35 219.199 110.35C217.932 110.35 216.632 110.2 215.299 109.9C213.999 109.6 212.816 109.167 211.749 108.6V121.85H204.349ZM216.799 104.25C217.566 104.25 218.299 104.05 218.999 103.65C219.699 103.217 220.249 102.45 220.649 101.35C221.082 100.25 221.299 98.6667 221.299 96.6C221.299 94.6 221.099 93.0333 220.699 91.9C220.332 90.7333 219.816 89.9167 219.149 89.45C218.482 88.95 217.699 88.7 216.799 88.7C215.766 88.7 214.816 88.8667 213.949 89.2C213.082 89.5333 212.349 89.8667 211.749 90.2V102.95C212.416 103.35 213.199 103.667 214.099 103.9C214.999 104.133 215.899 104.25 216.799 104.25ZM233.597 110V83.15H239.697L240.997 85.9C241.997 85.0667 243.247 84.3333 244.747 83.7C246.28 83.0333 247.847 82.7 249.447 82.7C251.647 82.7 253.347 83.1333 254.547 84C255.747 84.8667 256.58 86.0333 257.047 87.5C257.547 88.9333 257.797 90.5333 257.797 92.3V110H250.397V93.25C250.397 92.3833 250.23 91.6667 249.897 91.1C249.597 90.5333 249.164 90.1 248.597 89.8C248.03 89.5 247.347 89.35 246.547 89.35C245.847 89.35 245.164 89.4333 244.497 89.6C243.864 89.7667 243.247 90 242.647 90.3C242.08 90.6 241.53 90.95 240.997 91.35V110H233.597ZM271.733 110.1C269.833 110.1 268.25 109.8 266.983 109.2C265.75 108.567 264.833 107.617 264.233 106.35C263.633 105.05 263.333 103.383 263.333 101.35V71.85H270.733V100.25C270.733 101.25 270.833 102.05 271.033 102.65C271.233 103.217 271.533 103.633 271.933 103.9C272.367 104.167 272.9 104.35 273.533 104.45L275.583 104.75V110.1H271.733ZM279.907 79.2C279.207 79.2 278.857 78.8667 278.857 78.2V73.3C278.857 72.6 279.207 72.25 279.907 72.25H285.607C285.907 72.25 286.141 72.35 286.307 72.55C286.474 72.75 286.557 73 286.557 73.3V78.2C286.557 78.8667 286.241 79.2 285.607 79.2H279.907ZM279.007 110V83.15H286.407V110H279.007ZM307.293 110.3C306.126 110.3 305.076 110.167 304.143 109.9C303.21 109.633 302.36 109.283 301.593 108.85C300.86 108.417 300.16 107.95 299.493 107.45L298.293 110H292.093V71.85H299.493V85C300.56 84.4333 301.76 83.9167 303.093 83.45C304.426 82.9833 305.71 82.75 306.943 82.75C309.243 82.75 311.076 83.2333 312.443 84.2C313.843 85.1667 314.86 86.6833 315.493 88.75C316.126 90.7833 316.443 93.4833 316.443 96.85C316.443 99.85 316.11 102.35 315.443 104.35C314.81 106.35 313.81 107.85 312.443 108.85C311.11 109.817 309.393 110.3 307.293 110.3ZM304.543 104.25C305.41 104.25 306.176 104.033 306.843 103.6C307.543 103.133 308.076 102.333 308.443 101.2C308.843 100.067 309.043 98.5 309.043 96.5C309.043 94.1667 308.826 92.4667 308.393 91.4C307.993 90.3 307.443 89.5833 306.743 89.25C306.076 88.8833 305.343 88.7 304.543 88.7C303.543 88.7 302.61 88.8667 301.743 89.2C300.91 89.5 300.16 89.8333 299.493 90.2V102.95C300.126 103.283 300.843 103.583 301.643 103.85C302.476 104.117 303.443 104.25 304.543 104.25ZM321.341 110V83.15H327.041L328.741 87.25C329.708 86.0167 330.791 84.9667 331.991 84.1C333.225 83.2333 334.675 82.8 336.341 82.8C336.708 82.8 337.075 82.8167 337.441 82.85C337.841 82.8833 338.208 82.95 338.541 83.05V90.65C338.041 90.5833 337.508 90.5333 336.941 90.5C336.408 90.4333 335.891 90.4 335.391 90.4C334.425 90.4 333.541 90.5167 332.741 90.75C331.975 90.95 331.258 91.2667 330.591 91.7C329.958 92.1 329.341 92.6333 328.741 93.3V110H321.341ZM347.207 110.3C345.174 110.3 343.524 109.7 342.257 108.5C340.991 107.3 340.357 105.633 340.357 103.5V101.1C340.357 99.0667 341.074 97.4 342.507 96.1C343.941 94.7667 346.174 94.1 349.207 94.1H356.057V92.25C356.057 91.4167 355.907 90.7333 355.607 90.2C355.307 89.6333 354.741 89.2333 353.907 89C353.107 88.7333 351.874 88.6 350.207 88.6H342.157V84.3C343.457 83.9 344.957 83.55 346.657 83.25C348.391 82.95 350.474 82.8 352.907 82.8C355.141 82.8 357.041 83.0667 358.607 83.6C360.207 84.1333 361.407 85.05 362.207 86.35C363.041 87.65 363.457 89.45 363.457 91.75V110H357.607L356.407 107.15C356.174 107.417 355.774 107.717 355.207 108.05C354.641 108.383 353.941 108.733 353.107 109.1C352.307 109.433 351.391 109.717 350.357 109.95C349.357 110.183 348.307 110.3 347.207 110.3ZM350.957 105.15C351.291 105.15 351.657 105.117 352.057 105.05C352.491 104.95 352.924 104.85 353.357 104.75C353.824 104.617 354.241 104.5 354.607 104.4C355.007 104.267 355.324 104.15 355.557 104.05C355.824 103.95 355.991 103.883 356.057 103.85V97.6L351.557 97.9C350.257 98 349.291 98.3333 348.657 98.9C348.057 99.4667 347.757 100.233 347.757 101.2V102.3C347.757 102.967 347.891 103.517 348.157 103.95C348.457 104.383 348.841 104.7 349.307 104.9C349.807 105.067 350.357 105.15 350.957 105.15ZM368.997 110V83.15H374.697L376.397 87.25C377.364 86.0167 378.447 84.9667 379.647 84.1C380.881 83.2333 382.331 82.8 383.997 82.8C384.364 82.8 384.731 82.8167 385.097 82.85C385.497 82.8833 385.864 82.95 386.197 83.05V90.65C385.697 90.5833 385.164 90.5333 384.597 90.5C384.064 90.4333 383.547 90.4 383.047 90.4C382.081 90.4 381.197 90.5167 380.397 90.75C379.631 90.95 378.914 91.2667 378.247 91.7C377.614 92.1 376.997 92.6333 376.397 93.3V110H368.997ZM398.54 121.85L401.44 110C399.94 110 398.623 109.717 397.49 109.15C396.357 108.583 395.407 107.783 394.64 106.75C393.907 105.683 393.34 104.367 392.94 102.8L387.89 83.15H395.59L399.84 101.3C400.007 101.933 400.223 102.433 400.49 102.8C400.757 103.167 401.04 103.433 401.34 103.6C401.64 103.733 401.907 103.833 402.14 103.9C402.407 103.933 402.607 103.95 402.74 103.95L407.59 83.15H415.09L407.09 116.9L404.69 121.85H398.54ZM416.478 110.05C415.812 110.05 415.478 109.717 415.478 109.05V103.95C415.478 103.25 415.812 102.9 416.478 102.9H420.778C421.512 102.9 421.878 103.25 421.878 103.95V109.05C421.878 109.45 421.762 109.717 421.528 109.85C421.328 109.983 421.078 110.05 420.778 110.05H416.478ZM438.847 110.25C436.647 110.25 434.764 110.033 433.197 109.6C431.63 109.133 430.347 108.367 429.347 107.3C428.38 106.233 427.664 104.817 427.197 103.05C426.764 101.283 426.547 99.1 426.547 96.5C426.547 93.7667 426.764 91.5167 427.197 89.75C427.664 87.95 428.38 86.55 429.347 85.55C430.347 84.5167 431.63 83.8 433.197 83.4C434.797 82.9667 436.68 82.75 438.847 82.75C441.08 82.75 442.98 82.9667 444.547 83.4C446.114 83.8333 447.38 84.5667 448.347 85.6C449.347 86.6 450.064 88 450.497 89.8C450.964 91.5667 451.197 93.8 451.197 96.5C451.197 99.1667 450.98 101.4 450.547 103.2C450.114 104.967 449.414 106.367 448.447 107.4C447.48 108.433 446.197 109.167 444.597 109.6C443.03 110.033 441.114 110.25 438.847 110.25ZM438.847 104.35C439.747 104.35 440.497 104.267 441.097 104.1C441.73 103.933 442.23 103.6 442.597 103.1C442.997 102.567 443.297 101.767 443.497 100.7C443.697 99.6333 443.797 98.2333 443.797 96.5C443.797 94.7333 443.697 93.3333 443.497 92.3C443.297 91.2333 442.997 90.45 442.597 89.95C442.23 89.4167 441.73 89.0667 441.097 88.9C440.497 88.7333 439.747 88.65 438.847 88.65C437.98 88.65 437.23 88.7333 436.597 88.9C435.997 89.0667 435.497 89.4167 435.097 89.95C434.697 90.45 434.397 91.2333 434.197 92.3C434.03 93.3333 433.947 94.7333 433.947 96.5C433.947 98.2333 434.03 99.6333 434.197 100.7C434.397 101.767 434.697 102.567 435.097 103.1C435.497 103.6 435.997 103.933 436.597 104.1C437.23 104.267 437.98 104.35 438.847 104.35ZM456.107 110V83.15H461.807L463.507 87.25C464.474 86.0167 465.557 84.9667 466.757 84.1C467.99 83.2333 469.44 82.8 471.107 82.8C471.474 82.8 471.84 82.8167 472.207 82.85C472.607 82.8833 472.974 82.95 473.307 83.05V90.65C472.807 90.5833 472.274 90.5333 471.707 90.5C471.174 90.4333 470.657 90.4 470.157 90.4C469.19 90.4 468.307 90.5167 467.507 90.75C466.74 90.95 466.024 91.2667 465.357 91.7C464.724 92.1 464.107 92.6333 463.507 93.3V110H456.107ZM484.199 122.4C482.499 122.4 480.983 122.15 479.649 121.65C478.349 121.15 477.316 120.417 476.549 119.45C475.783 118.517 475.399 117.35 475.399 115.95V115.15C475.399 113.717 475.799 112.483 476.599 111.45C477.433 110.45 478.499 109.683 479.799 109.15C481.099 108.617 482.483 108.35 483.949 108.35L486.149 110.65C485.416 110.65 484.766 110.767 484.199 111C483.633 111.233 483.183 111.567 482.849 112C482.549 112.467 482.399 113.033 482.399 113.7V114.25C482.399 115.217 482.733 115.95 483.399 116.45C484.066 116.95 485.016 117.2 486.249 117.2H491.349C492.583 117.2 493.566 116.95 494.299 116.45C495.066 115.983 495.449 115.267 495.449 114.3V113.5C495.449 112.9 495.299 112.383 494.999 111.95C494.733 111.55 494.316 111.233 493.749 111C493.216 110.767 492.483 110.65 491.549 110.65H485.599C482.599 110.65 480.366 110.1 478.899 109C477.466 107.867 476.749 106.483 476.749 104.85C476.749 103.483 477.133 102.35 477.899 101.45C478.699 100.517 479.799 99.9 481.199 99.6C480.133 99.0333 479.283 98.35 478.649 97.55C478.016 96.7167 477.566 95.8333 477.299 94.9C477.033 93.9333 476.899 92.9333 476.899 91.9C476.899 89.9333 477.299 88.3 478.099 87C478.933 85.7 480.166 84.7333 481.799 84.1C483.466 83.4667 485.549 83.15 488.049 83.15H502.599V87.2L498.499 87.95C498.799 88.2833 499.099 88.6833 499.399 89.15C499.699 89.5833 499.949 90.1667 500.149 90.9C500.383 91.6 500.499 92.4833 500.499 93.55C500.499 95.0833 500.166 96.4667 499.499 97.7C498.866 98.9333 497.833 99.9167 496.399 100.65C494.999 101.383 493.133 101.75 490.799 101.75H486.049C485.149 101.75 484.416 101.883 483.849 102.15C483.283 102.417 482.999 102.9 482.999 103.6C482.999 104.167 483.233 104.567 483.699 104.8C484.199 105 484.749 105.1 485.349 105.1H492.749C494.816 105.1 496.566 105.367 497.999 105.9C499.433 106.433 500.533 107.3 501.299 108.5C502.066 109.667 502.449 111.217 502.449 113.15V113.9C502.449 116.533 501.616 118.6 499.949 120.1C498.283 121.633 495.716 122.4 492.249 122.4H484.199ZM487.099 96.2H489.949C490.983 96.2 491.766 96.05 492.299 95.75C492.866 95.4167 493.249 94.9833 493.449 94.45C493.683 93.8833 493.799 93.2333 493.799 92.5C493.799 91.5667 493.649 90.8167 493.349 90.25C493.083 89.6833 492.683 89.2833 492.149 89.05C491.616 88.8167 490.949 88.7 490.149 88.7H487.349C486.083 88.7 485.133 88.9833 484.499 89.55C483.866 90.0833 483.549 91.0333 483.549 92.4C483.549 93.7 483.849 94.6667 484.449 95.3C485.049 95.9 485.933 96.2 487.099 96.2ZM318.411 157V131.1H322.576L333.426 148.18V131.1H338.606V157H334.441L323.626 139.92V157H318.411ZM350.685 157.175C349.145 157.175 347.826 157.023 346.73 156.72C345.633 156.393 344.735 155.857 344.035 155.11C343.358 154.363 342.856 153.372 342.53 152.135C342.226 150.898 342.075 149.37 342.075 147.55C342.075 145.637 342.226 144.062 342.53 142.825C342.856 141.565 343.358 140.585 344.035 139.885C344.735 139.162 345.633 138.66 346.73 138.38C347.85 138.077 349.168 137.925 350.685 137.925C352.248 137.925 353.578 138.077 354.675 138.38C355.771 138.683 356.658 139.197 357.335 139.92C358.035 140.62 358.536 141.6 358.84 142.86C359.166 144.097 359.33 145.66 359.33 147.55C359.33 149.417 359.178 150.98 358.875 152.24C358.571 153.477 358.081 154.457 357.405 155.18C356.728 155.903 355.83 156.417 354.71 156.72C353.613 157.023 352.271 157.175 350.685 157.175ZM350.685 153.045C351.315 153.045 351.84 152.987 352.26 152.87C352.703 152.753 353.053 152.52 353.31 152.17C353.59 151.797 353.8 151.237 353.94 150.49C354.08 149.743 354.15 148.763 354.15 147.55C354.15 146.313 354.08 145.333 353.94 144.61C353.8 143.863 353.59 143.315 353.31 142.965C353.053 142.592 352.703 142.347 352.26 142.23C351.84 142.113 351.315 142.055 350.685 142.055C350.078 142.055 349.553 142.113 349.11 142.23C348.69 142.347 348.34 142.592 348.06 142.965C347.78 143.315 347.57 143.863 347.43 144.61C347.313 145.333 347.255 146.313 347.255 147.55C347.255 148.763 347.313 149.743 347.43 150.49C347.57 151.237 347.78 151.797 348.06 152.17C348.34 152.52 348.69 152.753 349.11 152.87C349.553 152.987 350.078 153.045 350.685 153.045ZM365.478 157L360.508 138.205H365.863L368.838 152.205L372.548 138.205H376.818L380.528 152.205L383.223 138.205H388.578L383.678 157H377.938L374.578 145.555L371.113 157H365.478Z" fill="white"/>
</svg>
